<svg xmlns="http://www.w3.org/2000/svg" width="270" height="168" fill="none" xmlns:v="https://vecta.io/nano"><g clip-path="url(#A)"><path d="M136.04 9.84c2.814.181 5.6.664 8.31 1.44a54.56 54.56 0 0 0 3.63-8.54 4.07 4.07 0 0 1 4.209-2.729 4.07 4.07 0 0 1 3.661 3.429c.334 2.166.468 4.359.4 6.55 16.13-3.35 28.14-6.17 27.71-.06l-.06.22c-3.61 9.93-10.81 17.87-19.75 21.79a4.07 4.07 0 0 0-2.119 1.687c-.493.788-.701 1.72-.591 2.643v25.69a67.15 67.15 0 0 0-53.51 0V36.27c.11-.923-.098-1.855-.591-2.643a4.07 4.07 0 0 0-2.119-1.687c-8.94-3.92-16.14-11.86-19.75-21.79l-.06-.22c-.43-6.11 11.58-3.29 27.71.06-.068-2.191.066-4.384.4-6.55a4.07 4.07 0 0 1 3.661-3.429 4.07 4.07 0 0 1 4.209 2.729 54.56 54.56 0 0 0 3.63 8.54c2.71-.776 5.496-1.259 8.31-1.44h2.71z" fill="#193151"/><path d="M134.97 12.8c3.667.147 7.294.821 10.77 2 2.128-3.496 3.833-7.232 5.08-11.13a1 1 0 0 1 1.1-.73 1 1 0 0 1 .68.264c.186.171.3.405.32.656.443 3.222.49 6.486.14 9.72 1.92-.29 2.4-.36 4.94-.93 16.18-3.56 21.48-3.7 22.93-3.09-3.38 8.94-9.91 16.07-18 19.6a7 7 0 0 0-4.49 7.1v21.33a68.21 68.21 0 0 0-47.51 0V36.26a7 7 0 0 0-1.062-4.298c-.809-1.28-2.012-2.263-3.428-2.802-8.06-3.53-14.59-10.66-18-19.6 1.45-.61 6.75-.47 22.93 3.09 2.54.57 3 .64 4.94.93-.35-3.234-.303-6.498.14-9.72.02-.251.134-.485.32-.656a1 1 0 0 1 .68-.264 1 1 0 0 1 1.1.73c1.247 3.898 2.952 7.634 5.08 11.13 3.476-1.179 7.103-1.853 10.77-2h.57z" fill="#fff"/><path d="M121.3 40.39a5.16 5.16 0 0 1-3.606-1.529c-.955-.964-1.492-2.265-1.494-3.621a4.9 4.9 0 0 1 .428-1.869c.264-.589.642-1.119 1.112-1.561a5.13 5.13 0 0 1 3.55-1.42c2.029.136 4.017.634 5.87 1.47 2.07.9 3.8 2.15 3.79 3.53s-1.74 2.62-3.81 3.52c-1.847.827-3.823 1.327-5.84 1.48z" fill="gold"/><g fill="#193151"><path d="M121.25 41.75a6.52 6.52 0 0 1-6.42-6.54c.025-.828.215-1.642.559-2.396s.833-1.431 1.441-1.994a6.43 6.43 0 0 1 4.48-1.79 18.42 18.42 0 0 1 6.4 1.58c3 1.32 4.62 3 4.62 4.78s-1.61 3.45-4.64 4.77a18.72 18.72 0 0 1-6.37 1.59h-.06-.01zm0-10a3.74 3.74 0 0 0-2.6 1 3.5 3.5 0 0 0-.81 1.122 3.49 3.49 0 0 0-.31 1.348 3.68 3.68 0 0 0 .281 1.424 3.7 3.7 0 0 0 .809 1.206 3.74 3.74 0 0 0 2.64 1.13 16.38 16.38 0 0 0 5.3-1.37c2.2-1 3-1.88 3-2.28s-.79-1.32-3-2.27a16.15 16.15 0 0 0-5.32-1.36l.01.05zm-24.17-17.5l12.5 2.9a.64.64 0 0 1 .501.573.63.63 0 0 1-.094.39.64.64 0 0 1-.307.257c-2.49 1-7 2.5-9.13.9-3.09-2.3-4.05-3.58-4.24-4.28a.63.63 0 0 1 .77-.74z"/></g><path d="M148.15 40.39a5.14 5.14 0 0 0 3.612-1.523c.956-.965 1.491-2.269 1.488-3.627a4.9 4.9 0 0 0-.428-1.869c-.264-.589-.642-1.119-1.112-1.561a5.13 5.13 0 0 0-3.55-1.42c-2.029.136-4.017.634-5.87 1.47-2.07.9-3.8 2.15-3.79 3.53s1.74 2.62 3.81 3.52c1.847.827 3.823 1.327 5.84 1.48z" fill="gold"/><g fill="#193151"><path d="M148.2 41.75a6.52 6.52 0 0 0 6.42-6.54c-.025-.828-.215-1.642-.559-2.396s-.833-1.431-1.441-1.994a6.43 6.43 0 0 0-4.48-1.79 18.42 18.42 0 0 0-6.4 1.58c-3 1.32-4.62 3-4.62 4.78s1.61 3.45 4.64 4.77a18.72 18.72 0 0 0 6.37 1.59h.06.01zm0-10a3.74 3.74 0 0 1 2.6 1 3.5 3.5 0 0 1 .81 1.122 3.49 3.49 0 0 1 .31 1.348 3.68 3.68 0 0 1-.281 1.424 3.7 3.7 0 0 1-.809 1.206 3.74 3.74 0 0 1-2.64 1.13 16.38 16.38 0 0 1-5.3-1.37c-2.2-1-3-1.88-3-2.28s.79-1.32 3-2.27a16.15 16.15 0 0 1 5.32-1.36l-.01.05zm24.17-17.5l-12.5 2.9a.64.64 0 0 0-.501.573.63.63 0 0 0 .094.39.64.64 0 0 0 .307.257c2.49 1 7 2.5 9.13.9 3.09-2.3 4.05-3.58 4.24-4.28.022-.104.017-.213-.015-.315s-.088-.194-.165-.268a.63.63 0 0 0-.59-.157z"/></g><path d="M164.19 63.95c-5.13-5.54-11.85-8-19-9.46a43.11 43.11 0 0 0-10.21-1h-.49a43.11 43.11 0 0 0-10.21 1c-7.16 1.42-13.88 3.92-19 9.46-4.15 4.5-5.32 10.11-2.69 14.8 1.695 3.263 4.22 6.023 7.32 8a47.12 47.12 0 0 0 19 6.07 41.92 41.92 0 0 0 5.57.29h.49a41.92 41.92 0 0 0 5.57-.29 47.12 47.12 0 0 0 19-6.07c3.1-1.977 5.625-4.737 7.32-8 2.65-4.69 1.48-10.3-2.67-14.8z" fill="#cbe5ef"/><path d="M161.35 63.32c-4.61-4.2-10.64-6.09-17.07-7.16-3.066-.6-6.186-.882-9.31-.84h-.45c-3.129-.056-6.256.212-9.33.8-6.43 1.07-12.46 3-17.07 7.16-3.73 3.4-4.77 7.65-2.42 11.2a17.23 17.23 0 0 0 6.58 6.08c5.36 2.576 11.151 4.135 17.08 4.6a47.63 47.63 0 0 0 5.32.22h.13a47.63 47.63 0 0 0 5.32-.22c5.929-.465 11.72-2.024 17.08-4.6a17.23 17.23 0 0 0 6.58-6.08c2.33-3.56 1.29-7.81-2.44-11.16z" fill="#fff"/><g fill="#193151"><path d="M121.71 75.15c-2.91 1.42-5.62 0-6.14-3.22-.57-3.45 4.08-11.65 5.15-5.45s5.83-2.47 5.86 1.41c-.078 1.538-.572 3.025-1.43 4.304s-2.047 2.3-3.44 2.956zm43.68-12.31c-6.11-6.6-14.28-8.85-19.89-10h-.13a42.16 42.16 0 0 0-8.94-1h-3.41a42.16 42.16 0 0 0-8.94 1h-.13c-5.61 1.11-13.78 3.36-19.89 10-4.72 5.1-5.83 11.51-2.92 16.71a22.35 22.35 0 0 0 7.91 8.64c5.55 3.34 11.8 5.34 19.66 6.29 1.755.214 3.522.321 5.29.32h1.45c1.768.001 3.535-.106 5.29-.32 7.86-1 14.11-3 19.66-6.29a22.35 22.35 0 0 0 7.91-8.64c2.91-5.23 1.8-11.61-2.92-16.71zm.06 15.11a19.21 19.21 0 0 1-6.74 7.43c-5.14 3.09-11 4.95-18.37 5.85a40.44 40.44 0 0 1-5.37.28h-.49a40.44 40.44 0 0 1-5.37-.28c-7.39-.9-13.23-2.76-18.37-5.85a19.21 19.21 0 0 1-6.74-7.43c-2.23-4-1.31-8.8 2.47-12.88 4.21-4.56 9.8-7.33 18.12-9h.12a41.86 41.86 0 0 1 9.95-1h.13a41.86 41.86 0 0 1 9.95 1h.12c8.32 1.64 13.91 4.41 18.12 9 3.78 4.08 4.7 8.9 2.47 12.88zm-17.71-2.8c2.91 1.42 5.62 0 6.14-3.22.57-3.45-4.08-11.65-5.15-5.45s-5.83-2.47-5.86 1.41c.078 1.538.572 3.025 1.43 4.304s2.047 2.3 3.44 2.956z"/></g><g fill="#162843"><path d="M41.24 119.13l-9.84 12.08c-1.467-1.715-3.271-3.111-5.3-4.1a6.12 6.12 0 0 0-3.94-.42 5.25 5.25 0 0 0-2.78 2 14.92 14.92 0 0 0-1.8 3 22.68 22.68 0 0 0-1.23 4c0 .07.08.56.25 1.46.228 1.057.627 2.07 1.18 3a5.7 5.7 0 0 0 2.64 2.45c1.14.52 2.7.45 4.66-.23s4.4-2.34 7.28-5l11 11.69a11.12 11.12 0 0 1-2.93 3.32 26.13 26.13 0 0 1-4.94 3.09 35.78 35.78 0 0 1-6.29 2.33 31.21 31.21 0 0 1-7 1.06 24.01 24.01 0 0 1-7-.75c-2.318-.608-4.488-1.679-6.38-3.15-2.583-1.906-4.711-4.362-6.23-7.19a22.06 22.06 0 0 1-2.42-8.09 24.68 24.68 0 0 1 .64-8.32 36.34 36.34 0 0 1 2.93-7.81 32.37 32.37 0 0 1 4.44-6.57 26.26 26.26 0 0 1 5.19-4.67 22.04 22.04 0 0 1 4.22-1.82 22.97 22.97 0 0 1 4.63-.84 17.62 17.62 0 0 1 5.79.5 23.14 23.14 0 0 1 6.52 2.84c2.552 1.673 4.818 3.746 6.71 6.14zm36.73 18.54a17.46 17.46 0 0 1-.37 7.22 16.2 16.2 0 0 1-3 5.9 16.51 16.51 0 0 1-5.11 4.22 19.9 19.9 0 0 1-6.83 2.16 21 21 0 0 1-7.19-.22 16.63 16.63 0 0 1-6.12-2.62 15.79 15.79 0 0 1-4.5-4.83 17.27 17.27 0 0 1-2.3-6.82 17.52 17.52 0 0 1 .36-7.23c.59-2.156 1.61-4.17 3-5.92 1.382-1.733 3.104-3.166 5.06-4.21a19.75 19.75 0 0 1 6.83-2.17c2.382-.362 4.808-.305 7.17.17a16.63 16.63 0 0 1 6.09 2.61 15.68 15.68 0 0 1 4.5 4.86 18.43 18.43 0 0 1 2.41 6.88zm-23.6 4.78a4.87 4.87 0 0 0 1.18 1.77 4.88 4.88 0 0 0 1.82 1.1 6.65 6.65 0 0 0 4.72-.45 6.85 6.85 0 0 0 3.57-3.07 4.77 4.77 0 0 0 .08-4.13 5 5 0 0 0-3-2.83 6.35 6.35 0 0 0-4.66.42 6.83 6.83 0 0 0-3.63 3.09 4.71 4.71 0 0 0-.12 4.1h.04zm37.77-3.82l3.2-14.55 8.82-.68 3.32 15.4h.11l3.32-15.9 12.25 1-8.66 32.42-11.63.9-3.14-15.68h-.12l-3.2 14.78-11.52.95-8.76-33.37 12.58-1 3.32 15.73h.11z"/><path d="M145.57 128.8l3.57 1.79a15.45 15.45 0 0 1 3.32 2.48 11.89 11.89 0 0 1 3.56 8.37 14.12 14.12 0 0 1-1.172 6.792c-.946 2.132-2.405 3.997-4.248 5.428-1.906 1.468-4.065 2.573-6.37 3.26a30.85 30.85 0 0 1-8 1.32c-1.336.034-2.674-.033-4-.2-1.381-.168-2.75-.422-4.1-.76-1.331-.329-2.643-.73-3.93-1.2l-3.6-1.49 4.27-12 2 .87c.825.378 1.67.712 2.53 1 .9.3 1.84.56 2.81.78a10.5 10.5 0 0 0 2.87.28 10 10 0 0 0 3.51-.73 2 2 0 0 0 1.051-.794c.251-.376.367-.826.329-1.276a1.73 1.73 0 0 0-1-1.47c-.721-.374-1.462-.708-2.22-1l-2.22-.62c-1.005-.289-1.991-.643-2.95-1.06-1.092-.472-2.151-1.016-3.17-1.63-1.069-.641-2.051-1.417-2.92-2.31-.894-.911-1.633-1.961-2.19-3.11a9.57 9.57 0 0 1-.93-4.08 14.87 14.87 0 0 1 1.35-7 15.57 15.57 0 0 1 4-5.23c1.737-1.47 3.74-2.593 5.9-3.31 2.32-.785 4.742-1.229 7.19-1.32a34.96 34.96 0 0 1 7 .36c2.234.336 4.422.93 6.52 1.77l-3.32 13-4.1-1.6a22.15 22.15 0 0 0-4.32-1c-.663-.092-1.331-.132-2-.12a10.68 10.68 0 0 0-2.33.26c-.711.143-1.39.417-2 .81-.263.173-.481.405-.638.677a1.99 1.99 0 0 0-.262.893.79.79 0 0 0 .43.71c.31.183.648.315 1 .39a11.61 11.61 0 0 0 1.2.22l1 .15 3.48.78a17.25 17.25 0 0 1 3.1.92zm24.05 9.83l3.2-14.55 8.83-.68 3.31 15.4h.11l3.32-15.9 12.25 1-8.67 32.42-11.63.9-3.14-15.68h-.12l-3.19 14.78-11.52 1-8.76-33.37 12.58-1 3.32 15.73.11-.05zm49.35 14.55h-.11a7.9 7.9 0 0 1-3.85 3 14.7 14.7 0 0 1-5 .84c-1.462.007-2.912-.268-4.27-.81a10.42 10.42 0 0 1-3.54-2.33 11.36 11.36 0 0 1-2.41-3.66c-.618-1.513-.924-3.136-.9-4.77-.016-1.462.291-2.91.9-4.24.583-1.276 1.413-2.425 2.44-3.38 1.064-.971 2.302-1.732 3.65-2.24 1.462-.558 3.015-.836 4.58-.82a11.2 11.2 0 0 1 4.36.76c1.066.445 2.074 1.019 3 1.71v-1.68c0-1.72-.56-2.87-1.68-3.43-1.38-.611-2.882-.898-4.39-.84-1.547-.009-3.091.159-4.6.5l-4.33 1.18 2.15-8.95c1.837-.531 3.718-.896 5.62-1.09 1.993-.212 3.996-.315 6-.31a22.6 22.6 0 0 1 5.39.64c1.67.391 3.247 1.108 4.64 2.11a10.56 10.56 0 0 1 3.17 3.76c.837 1.772 1.222 3.723 1.12 5.68l-.61 21.24-11.3.95-.03-3.82zm-7.13-10.39c-1.153.136-2.245.593-3.15 1.32-.368.259-.661.611-.849 1.021a2.55 2.55 0 0 0-.221 1.309c.082.432.271.836.551 1.175s.641.603 1.049.765a6.24 6.24 0 0 0 3.57.31 5.77 5.77 0 0 0 3.26-1.41 2.52 2.52 0 0 0 .84-2.3 2.69 2.69 0 0 0-.506-1.078c-.248-.317-.564-.574-.924-.752-1.134-.541-2.422-.668-3.64-.36h.02zm34.81-19.39v3.82a12.46 12.46 0 0 1 3.74-2.89 10.62 10.62 0 0 1 4.63-.93c2.145-.023 4.263.489 6.16 1.49 1.821.971 3.427 2.301 4.72 3.91 1.308 1.64 2.323 3.494 3 5.48.703 1.992 1.065 4.088 1.07 6.2.003 2.212-.376 4.407-1.12 6.49-.717 2.024-1.794 3.901-3.18 5.54-1.361 1.606-3.031 2.922-4.91 3.87a13.63 13.63 0 0 1-6.3 1.47c-1.26-.014-2.513-.185-3.73-.51a7.91 7.91 0 0 1-3.57-2l.34 11.18-11.86 1-.62-43.1 11.63-1.02zm7.64 21.75a6.32 6.32 0 0 0 3.4-3.32 4.74 4.74 0 0 0 .425-1.996c-.005-.689-.16-1.368-.455-1.99a4.76 4.76 0 0 0-1.248-1.614 4.74 4.74 0 0 0-1.812-.94 6.47 6.47 0 0 0-4.69.53 6.69 6.69 0 0 0-3.48 3.34 4.78 4.78 0 0 0-.298 3.026c.233 1.015.791 1.925 1.588 2.594.536.438 1.16.755 1.83.93.731.19 1.489.247 2.24.17a7.51 7.51 0 0 0 2.5-.73z"/></g></g><defs><clipPath id="A"><path fill="#fff" d="M0 0h269.97v167.51H0z"/></clipPath></defs></svg>